# xmcd
#
# Track frame offsets:
#  150
#  9805
#  20582
#  32265
#  44880
#  55212
#  65205
#  75472
#  85887
#  97710
#  111465
#  125455
#  136492
#  149215
#  161122
#  173885
#
# Disc length: 2486 seconds
#
# Revision: 1
# Processed by: cddbd v1.5.1PL0 Copyright (c) Steve Scherf et al.
# Submitted via: Collectorz.com_Music_Collector 6.9
#
DISCID=dd09b410
DTITLE=Tennessee Ernie Ford - Masters 1949 - 1976 [CD 3 Of 3)
DYEAR=1900
DGENRE=Country
TTITLE0=Anticipation Blues
TTITLE1=Milk 'en in the Mornin Blues
TTITLE2=Shotgun Boogie
TTITLE3=Stack-O-Lee
TTITLE4=You Can Tell a Texan Every Time
TTITLE5=Rock City Boogie
TTITLE6=False Harted Girl
TTITLE7=Cool Cool Kisses
TTITLE8=You're My Sugar
TTITLE9=She Called Me Baby
TTITLE10=Bright Lights and Blonde Haired Women
TTITLE11=Since You've Been Gone
TTITLE12=It's the Talk of the Town
TTITLE13=Take Me Back and Try Me One More Time
TTITLE14=Sweet Dreams
TTITLE15=That's All
EXTD=
EXTT0=
EXTT1=
EXTT2=
EXTT3=
EXTT4=
EXTT5=
EXTT6=
EXTT7=
EXTT8=
EXTT9=
EXTT10=
EXTT11=
EXTT12=
EXTT13=
EXTT14=
EXTT15=
PLAYORDER=
